# xmcd
#
# Track frame offsets:
#	150
#	13752
#	29755
#	40294
#	62015
#	84105
#	104439
#	123571
#	135983
#	155655
#	166139
#	181825
#	195072
#	205935
#	223769
#	239525
#
# Disc length: 3373 seconds
#
# Revision: 0
# Processed by: cddbd v1.5.1PL2 Copyright (c) Steve Scherf et al.
# Submitted via: audiograbber 1.82.01
#
DISCID=d60d2b10
DTITLE=Various Artist - Lady Sings the blues Disc 2
DYEAR=2003
DGENRE=Blues
TTITLE0=Etta James - At Last
TTITLE1=Dorothy Moore - Misty Blue
TTITLE2=Kay Starr - Baby won't you please come home
TTITLE3=Molly Johnston  - Diamond in my hand
TTITLE4=The staple singers - Respect yourself
TTITLE5=Janis Joplin - Me and Bobby McGee
TTITLE6=Bobby Gentry  - Ode to Billy Joe
TTITLE7=Little Esther - Aged and mellow blues
TTITLE8=Diana Krall - I'm just like a lucky so and so
TTITLE9=Dinah Washington - Call me irresponsible
TTITLE10=Sara Vaughan - Stormy weather
TTITLE11=Billy Holiday - God bless the child
TTITLE12=Aretha Franklin - Respect
TTITLE13=Patti Labelle - Lady Marmelade
TTITLE14=Tina Turner - Night time is the right time
TTITLE15=Eartha Kitt - C'est si bon
EXTD=
EXTT0=
EXTT1=
EXTT2=
EXTT3=
EXTT4=
EXTT5=
EXTT6=
EXTT7=
EXTT8=
EXTT9=
EXTT10=
EXTT11=
EXTT12=
EXTT13=
EXTT14=
EXTT15=
PLAYORDER=
